<svg width="396" height="254" viewBox="0 0 396 254" fill="none" xmlns="http://www.w3.org/2000/svg">
<path d="M315.673 0C326.644 0 338.401 0.914582 350.939 2.74316C363.739 4.57173 373.797 7.18322 381.111 10.5791C383.462 11.3627 385.03 12.4079 385.813 13.7139C386.597 14.7588 387.12 16.7183 387.381 19.5918L392.083 74.0576C392.083 74.8413 391.429 75.3638 390.123 75.625C389.078 75.886 388.295 75.494 387.772 74.4492C379.152 54.335 367.397 38.531 352.507 27.0371C337.878 15.5433 320.506 9.79597 300.392 9.7959C282.889 9.79592 267.998 14.2365 255.721 23.1182C243.704 31.9998 234.561 44.4082 228.292 60.3428C222.284 76.0163 219.279 94.3031 219.279 115.201C219.279 133.226 221.501 150.205 225.941 166.14C230.382 181.813 236.651 195.658 244.749 207.675C252.847 219.43 262.513 228.703 273.746 235.495C284.979 242.287 297.387 245.684 310.971 245.684C327.689 245.684 342.58 240.197 355.642 229.226C368.964 218.254 380.85 201.275 391.299 178.287C391.821 177.242 392.736 176.85 394.042 177.111C395.348 177.373 396.001 177.895 396.001 178.679L390.123 231.969C389.601 235.103 388.948 237.193 388.164 238.238C387.642 239.022 386.204 239.937 383.854 240.981C371.837 245.422 359.69 248.688 347.412 250.777C335.396 252.867 323.64 253.912 312.146 253.912C286.807 253.912 265.125 250.124 247.101 242.549C229.076 234.712 214.316 224.524 202.822 211.985C191.589 199.185 183.23 185.34 177.744 170.45C173.117 157.032 170.541 143.819 170.012 130.811C168.339 131.21 166.788 131.703 165.358 132.291C160.917 133.858 156.738 136.732 152.819 140.912C148.64 144.83 143.937 150.577 138.713 158.152C133.488 165.728 126.696 175.393 118.337 187.148C106.843 203.606 97.8305 216.406 91.2998 225.549C84.7691 234.431 79.8052 240.831 76.4092 244.749C72.752 248.667 70.0092 251.019 68.1807 251.803C66.0909 252.586 63.8705 252.978 61.5195 252.978H1.17578C0.392124 252.978 1.99066e-05 252.194 0 250.627C0 249.06 0.392104 248.275 1.17578 248.275C9.53504 248.014 17.3722 245.141 24.6865 239.655C31.7396 234.17 39.1847 226.332 47.0215 216.145C54.597 205.957 63.6096 193.68 74.0586 179.312C82.6791 167.296 90.1241 157.63 96.3936 150.315C102.402 142.74 108.149 136.994 113.635 133.075C118.859 128.896 124.737 126.153 131.268 124.847C135.432 123.847 140.234 123.168 145.674 122.806L92.4756 56.666C85.6836 48.3068 77.977 40.8617 69.3564 34.3311C60.4748 27.5393 51.4622 22.3153 42.3193 18.6582C33.1763 14.7398 24.8169 12.7803 17.2412 12.7803C16.4575 12.7803 16.0654 11.9961 16.0654 10.4287C16.0655 8.86167 16.4576 8.07812 17.2412 8.07812C23.7719 8.07813 30.564 8.33986 37.6172 8.8623C44.4091 9.12352 53.8136 9.25391 65.8301 9.25391C76.2791 9.2539 85.422 9.12352 93.2588 8.8623C101.095 8.33987 108.149 8.07814 114.418 8.07812C114.94 8.07812 115.202 8.86167 115.202 10.4287C115.202 11.9961 114.94 12.7803 114.418 12.7803C105.014 12.7804 99.79 17.6131 98.7451 27.2783C97.439 36.9436 102.663 49.8744 114.418 66.0703L155.522 122.495C155.535 122.495 155.548 122.495 155.562 122.495C159.747 122.495 164.542 122.56 169.943 122.686C170.341 104.591 174.247 88.2513 181.663 73.666C189.761 58.2537 200.602 45.0613 214.186 34.0898C228.031 23.1184 243.574 14.7587 260.815 9.01172C278.318 3.00367 296.603 4.09063e-05 315.673 0Z" fill="#E9E4DB"/>
</svg>
